HIERARCHY
ROOT Hips
{
	OFFSET 0.000000 0.000000 0.000000 
	CHANNELS 6 Xposition Yposition Zposition Yrotation Zrotation Xrotation 
	JOINT Lumbar
	{
		OFFSET 0.000000 0.000000 0.000000 
		CHANNELS 3 Zrotation Xrotation Yrotation
		JOINT Neck
		{
			OFFSET 0.000000 0.445665 0.000000 
			CHANNELS 3 Zrotation Xrotation Yrotation
			End Site
			{
				OFFSET 0.000000 0.227535 0.000000 
			}
		}
		JOINT RightShoulder
		{
			OFFSET 0.019635 0.377685 0.194865 
			CHANNELS 3 Zrotation Xrotation Yrotation
			JOINT RightElbow
			{
				OFFSET 0.000000 -0.243375 0.000000 
				CHANNELS 2 Zrotation Yrotation
				JOINT RightWrist
				{
					OFFSET 0.000000 -0.264825 0.000000 
					CHANNELS 2 Zrotation Xrotation
					End Site
					{
						OFFSET 0.006600 -0.176220 0.000990 
					}
				}
			}
		}
		JOINT LeftShoulder
		{
			OFFSET 0.019635 0.377685 -0.194865 
			CHANNELS 3 Zrotation Xrotation Yrotation
			JOINT LeftElbow
			{
				OFFSET 0.000000 -0.243375 0.000000 
				CHANNELS 2 Zrotation Yrotation
				JOINT LeftWrist
				{
					OFFSET 0.000000 -0.264825 0.000000 
					CHANNELS 2 Zrotation Xrotation
					End Site
					{
						OFFSET 0.006600 -0.176220 -0.000990 
					}
				}
			}
		}
	}
	JOINT RightHip
	{
		OFFSET 0.052140 -0.069960 0.075570 
		CHANNELS 3 Zrotation Xrotation Yrotation
		JOINT RightKnee
		{
			OFFSET 0.000000 -0.402270 0.000000 
			CHANNELS 1 Zrotation
			JOINT RightAnkle
			{
				OFFSET 0.000000 -0.404085 0.000000 
				CHANNELS 3 Zrotation Xrotation Yrotation
				End Site
				{
					OFFSET 0.204105 -0.089430 0.008415 
				}
			}
		}
	}
	JOINT LeftHip
	{
		OFFSET 0.052140 -0.069960 -0.075570 
		CHANNELS 3 Zrotation Xrotation Yrotation
		JOINT LeftKnee
		{
			OFFSET 0.000000 -0.402270 0.000000 
			CHANNELS 1 Zrotation
			JOINT LeftAnkle
			{
				OFFSET 0.000000 -0.404085 0.000000 
				CHANNELS 3 Zrotation Xrotation Yrotation
				End Site
				{
					OFFSET 0.204105 -0.089430 -0.008415 
				}
			}
		}
	}
}
MOTION
Frames: 27
Frame Time: 0.02
-0.64079 -0.27146 0.14006 906.76371 -18.97208 -0.79394 22.52401 0.3633 -5.21951 -4.76047 -1.99269 -2.11994 166.38694 -171.25707 -87.14687 134.3013 147.81505 -75.22924 -21.88586 166.38692 146.10447 87.14685 91.12852 -69.14567 -75.22909 21.88451 87.74182 -10.39332 -4.34562 -81.64776 -8.99573 0.08483 -2.29871 89.32565 11.2377 0.77046 -77.16654 -9.96509 0.84304 2.79625
-0.64029 -0.27168 0.13992 906.68923 -18.98335 -0.76446 22.49677 0.30266 -4.94065 -5.03893 -1.62579 -2.11994 166.38694 -171.25708 -87.14687 134.30131 148.03259 -75.22926 -21.88612 166.38692 146.96866 87.14685 87.21041 -69.13387 -75.22909 21.88455 87.69481 -10.41021 -4.2863 -81.57274 -8.92932 0.09662 -2.29286 89.36708 11.11455 0.53003 -77.37624 -9.72212 0.99117 2.85694
-0.63969 -0.27206 0.13973 906.5941 -18.97729 -0.74309 22.44704 0.25079 -4.54938 -5.36903 -1.19669 -2.11994 166.38694 -171.25708 -87.14687 134.3013 147.99882 -75.22924 -21.88592 166.38692 148.10207 87.14684 83.53563 -69.09846 -75.2291 21.88459 87.57929 -10.40513 -4.42454 -81.50591 -8.78958 0.05121 -2.31273 89.45348 11.03735 0.45076 -77.72816 -9.43928 1.21914 2.95502
-0.63915 -0.27237 0.13958 906.51207 -18.97449 -0.71836 22.40466 0.19824 -4.21377 -5.67375 -0.7996 -2.11994 166.38694 -171.25708 -87.14687 134.30131 148.07328 -75.22925 -21.88595 166.38692 149.09936 87.14684 79.82984 -69.07672 -75.2291 21.88462 87.4936 -10.40926 -4.45931 -81.44447 -8.67808 0.02622 -2.32323 89.51128 10.94993 0.31046 -78.01283 -9.17604 1.41152 3.03661
-0.63853 -0.27269 0.13938 906.41545 -18.98963 -0.69236 22.3732 0.13188 -3.85861 -5.99119 -0.38619 -2.11994 166.38694 -171.25708 -87.14687 134.30131 148.1471 -75.22925 -21.88595 166.38692 150.1628 87.14684 75.78467 -69.0435 -75.22911 21.88466 87.41166 -10.41655 -4.54817 -81.34255 -8.58768 0.02475 -2.32393 89.59916 10.81671 0.11896 -78.3047 -8.90448 1.60284 3.11694
-0.63805 -0.27301 0.13927 906.34397 -18.96392 -0.6709 22.31418 0.09624 -3.5171 -6.2927 0.00745 -2.11994 166.38694 -171.25708 -87.14687 134.30131 148.17168 -75.22924 -21.88588 166.38692 151.151 87.14684 72.50221 -69.0274 -75.22911 21.8847 87.30614 -10.41259 -4.57411 -81.32789 -8.43662 -0.03892 -2.351 89.63683 10.78885 0.07112 -78.61709 -8.64165 1.81395 3.2081
-0.63797 -0.27327 0.13943 906.34609 -18.82936 -0.65977 22.18396 0.14402 -3.24695 -6.53591 0.33565 -2.11994 166.38694 -171.25708 -87.14687 134.30131 148.13212 -75.22925 -21.88599 166.38692 151.84278 87.14684 71.31114 -69.07505 -75.22911 21.88472 87.15455 -10.37674 -4.36065 -81.5492 -8.12926 -0.26462 -2.44632 89.52415 11.05675 0.39488 -78.94817 -8.412 2.06842 3.32421
-0.63804 -0.27351 0.13969 906.37418 -18.65473 -0.65297 22.02712 0.22222 -2.99359 -6.76057 0.64089 -2.11994 166.38694 -171.25708 -87.14687 134.30131 148.05364 -75.22925 -21.886 166.38692 152.45098 87.14684 70.87415 -69.13905 -75.22911 21.88474 86.98162 -10.3314 -4.08064 -81.85869 -7.76469 -0.55008 -2.56693 89.36029 11.42666 0.85529 -79.29599 -8.193 2.33837 3.44908
-0.63803 -0.27376 0.13991 906.39089 -18.49865 -0.64427 21.8829 0.28604 -2.72837 -6.99462 0.95387 -2.11994 166.38694 -171.25708 -87.14687 134.3013 147.98998 -75.22924 -21.88589 166.38692 153.11274 87.14684 70.06075 -69.18821 -75.22912 21.88476 86.81702 -10.29444 -3.84269 -82.1302 -7.43058 -0.80557 -2.67489 89.22073 11.73932 1.24365 -79.63891 -7.96976 2.59563 3.56708
-0.63803 -0.27404 0.14014 906.40533 -18.3398 -0.63547 21.73534 0.35265 -2.47622 -7.22804 1.28077 -2.11994 166.38694 -171.25708 -87.14687 134.30131 147.92893 -75.2293 -21.88646 166.38692 153.72404 87.14684 69.38892 -69.26662 -75.22912 21.88478 86.65504 -10.23963 -3.56148 -82.39375 -7.07471 -1.07539 -2.78883 89.07763 12.09848 1.67888 -79.97581 -7.74227 2.87949 3.69855
-0.63806 -0.27424 0.14035 906.43065 -18.17833 -0.6279 21.58911 0.42039 -2.20338 -7.45575 1.57196 -2.11994 166.38694 -171.25708 -87.14687 134.3013 147.85686 -75.22921 -21.88561 166.38692 154.40984 87.14684 68.60959 -69.2898 -75.22912 21.8848 86.48436 -10.21991 -3.35228 -82.69394 -6.75203 -1.32822 -2.89572 88.92996 12.38574 2.04778 -80.32673 -7.52706 3.11066 3.80363
-0.63821 -0.2742 0.14045 906.48226 -18.01189 -0.62182 21.44971 0.48528 -1.86089 -7.68854 1.77355 -2.11994 166.38691 -171.25706 -87.14684 134.3013 147.76377 -75.22868 -21.88075 166.38692 155.38154 87.14684 67.25103 -69.14374 -75.22912 21.88482 86.28738 -10.30071 -3.35485 -83.07991 -6.53134 -1.52433 -2.97908 88.77531 12.43784 2.19106 -80.71695 -7.34049 3.19122 3.83294
-0.63839 -0.27407 0.1405 906.54362 -17.84561 -0.61693 21.31322 0.54993 -1.49931 -7.91304 1.9389 -2.11994 166.38689 -171.25704 -87.14681 134.30129 147.66232 -75.22799 -21.87447 166.38692 156.41834 87.14684 65.77565 -68.94402 -75.22912 21.88483 86.08408 -10.41706 -3.43171 -83.49816 -6.34719 -1.70006 -3.05394 88.61882 12.41575 2.26356 -81.11885 -7.16673 3.21804 3.83534
-0.63855 -0.27399 0.14057 906.5988 -17.6844 -0.61202 21.17781 0.61368 -1.15228 -8.13024 2.11848 -2.11994 166.38687 -171.25703 -87.14678 134.30128 147.56615 -75.22739 -21.86893 166.38692 157.38504 87.14684 64.41634 -68.77735 -75.22913 21.88485 85.88897 -10.51635 -3.47591 -83.89804 -6.14897 -1.8817 -3.1312 88.46756 12.4354 2.37381 -81.51197 -6.98893 3.26998 3.85041
-0.63874 -0.27389 0.14068 906.66187 -17.50042 -0.60514 21.03164 0.68279 -0.78017 -8.39309 2.30736 -2.11994 166.38684 -171.25701 -87.14675 134.30127 147.46218 -75.22675 -21.86308 166.38692 158.52094 87.14684 62.81634 -68.57471 -75.22913 21.88486 85.6708 -10.61895 -3.51371 -84.31817 -5.93762 -2.07971 -3.21559 88.29629 12.42589 2.46612 -81.92152 -6.8035 3.3197 3.86402
-0.63888 -0.2738 0.14069 906.71098 -17.364 -0.60249 20.9085 0.74025 -0.45656 -8.5597 2.4678 -2.11994 166.38682 -171.25699 -87.14672 134.30127 147.373 -75.22614 -21.85745 166.38692 159.31983 87.14684 61.68163 -68.43396 -75.22913 21.88487 85.49925 -10.72344 -3.58276 -84.70068 -5.76351 -2.23786 -3.28273 88.16654 12.45677 2.5762 -82.29802 -6.63744 3.3609 3.8741
-0.63885 -0.27375 0.14039 906.71473 -17.36268 -0.61212 20.85233 0.76601 -0.26321 -8.45742 2.56477 -2.11994 166.38682 -171.25699 -87.14672 134.30127 147.3275 -75.22567 -21.85313 166.38692 159.18201 87.14684 61.84237 -68.47769 -75.22913 21.88487 85.46005 -10.82253 -3.72471 -84.98769 -5.67982 -2.29163 -3.3045 88.15543 12.62898 2.76018 -82.59098 -6.51719 3.39293 3.88125
-0.63876 -0.27371 0.13998 906.70468 -17.40872 -0.62584 20.81873 0.77993 -0.1209 -8.25966 2.63311 -2.11994 166.38682 -171.25699 -87.14672 134.30127 147.29723 -75.22519 -21.84879 166.38692 158.70179 87.14684 62.47399 -68.5853 -75.22913 21.88486 85.46777 -10.92257 -3.89493 -85.23217 -5.63336 -2.30552 -3.30903 88.18586 12.84183 2.96221 -82.84776 -6.41701 3.41785 3.88566
-0.63869 -0.27366 0.13964 906.70382 -17.43075 -0.63702 20.77217 0.79873 0.03955 -8.10902 2.71092 -2.11994 166.38682 -171.25699 -87.14672 134.30127 147.25974 -75.22473 -21.84454 166.38692 158.37172 87.14684 62.89921 -68.66338 -75.22913 21.88486 85.45276 -11.02368 -4.04942 -85.48508 -5.57231 -2.33695 -3.32119 88.19507 13.02782 3.15051 -83.11461 -6.31028 3.44528 3.89118
-0.63864 -0.27361 0.13925 906.6914 -17.46315 -0.65088 20.73672 0.81929 0.22242 -7.94215 2.80332 -2.11994 166.38682 -171.25699 -87.14672 134.30127 147.2233 -75.22433 -21.84085 166.38692 158.06507 87.14684 63.29271 -68.74205 -75.22913 21.88485 85.44332 -11.12029 -4.21874 -85.78545 -5.50231 -2.3703 -3.33398 88.21365 13.24631 3.36039 -83.41056 -6.19222 3.47428 3.89646
-0.63855 -0.27357 0.13892 906.69917 -17.48531 -0.66043 20.6839 0.83386 0.34568 -7.78677 2.85785 -2.11994 166.38682 -171.25699 -87.14672 134.30127 147.18824 -75.22364 -21.83478 166.38692 157.62983 87.14684 63.86062 -68.83491 -75.22913 21.88485 85.43369 -11.22529 -4.36277 -85.97611 -5.45975 -2.39027 -3.34141 88.2231 13.40819 3.52975 -83.63492 -6.10354 3.49854 3.90177
-0.63837 -0.27349 0.13877 906.76993 -17.46675 -0.65412 20.57404 0.83046 0.3215 -7.6846 2.82506 -2.11994 166.38682 -171.25699 -87.14672 134.30127 147.15537 -75.22342 -21.8323 166.38692 156.90336 87.14684 64.83617 -68.95534 -75.22912 21.88483 85.41069 -11.35956 -4.43119 -85.87627 -5.4803 -2.38437 -3.33867 88.19295 13.39988 3.58987 -83.68924 -6.08123 3.51567 3.90943
-0.63816 -0.27342 0.13868 906.86069 -17.43644 -0.64381 20.4467 0.82219 0.23816 -7.59782 2.75349 -2.11994 166.38682 -171.25699 -87.14672 134.30127 147.12334 -75.22258 -21.82522 166.38692 156.063 87.14684 65.96352 -69.08731 -75.22912 21.88481 85.38619 -11.501 -4.47273 -85.66675 -5.52781 -2.36619 -3.33107 88.1529 13.33434 3.60786 -83.66917 -6.08973 3.52773 3.91705
-0.63797 -0.27335 0.13858 906.93972 -17.41202 -0.63731 20.32948 0.81905 0.17872 -7.50512 2.69309 -2.11994 166.38682 -171.257 -87.14672 134.30127 147.08919 -75.22131 -21.81397 166.38692 155.28718 87.14684 66.9952 -69.2117 -75.22912 21.88479 85.36334 -11.6347 -4.52525 -85.50615 -5.56494 -2.35296 -3.32551 88.12029 13.29788 3.64058 -83.67078 -6.09033 3.53967 3.92377
-0.63774 -0.27326 0.13842 907.02952 -17.38677 -0.62277 20.20326 0.8034 0.13001 -7.40404 2.65871 -2.11994 166.38682 -171.257 -87.14672 134.30127 147.06158 -75.22344 -21.83044 166.38692 154.44431 87.14684 68.15705 -69.34836 -75.22912 21.88477 85.33803 -11.7869 -4.58342 -85.34868 -5.5949 -2.34123 -3.32016 88.07704 13.24959 3.69159 -83.72242 -6.06524 3.56172 3.93428
-0.63759 -0.2732 0.13839 907.10171 -17.36006 -0.62371 20.0921 0.81255 0.04571 -7.32594 2.56155 -2.11994 166.38682 -171.257 -87.14672 134.30127 147.02201 -75.21787 -21.78644 166.38692 153.71997 87.14684 69.07624 -69.4611 -75.22911 21.88475 85.31688 -11.90286 -4.62383 -85.15832 -5.64643 -2.32367 -3.31334 88.05262 13.21213 3.69543 -83.65254 -6.10152 3.56143 3.93688
-0.63762 -0.27326 0.1387 907.12131 -17.33035 -0.67061 20.02071 0.89356 -0.12339 -7.30289 2.2985 -2.11994 166.38682 -171.257 -87.14672 134.30127 146.93429 -75.19523 -21.59106 166.38692 153.34015 87.14684 69.29847 -69.50699 -75.22911 21.88473 85.30775 -11.91132 -4.61484 -84.91214 -5.74424 -2.29599 -3.30477 88.08665 13.21541 3.56886 -83.26669 -6.29229 3.50252 3.91821
